<svg width="114" height="43" viewBox="0 0 114 43" fill="none" xmlns="http://www.w3.org/2000/svg">
<path d="M19.3878 26.1174H26.4449C25.902 31.1133 22.4122 33.0057 18.2245 33.0057C12.098 33.0057 8.22041 29.1452 8.22041 21.5C8.22041 13.8547 12.0204 9.99423 18.2245 9.99423C22.5673 9.99423 25.049 11.8866 27.1429 14.9901L33.1143 10.9783C30.8653 6.96641 26.9102 3.93859 20.8612 3.25733V0.153809H14.3469V3.40872C5.81633 4.92263 0 11.1297 0 21.5757C0 32.0216 5.81633 38.153 14.2694 39.5155V42.7704H20.7837V39.6669C29.5469 38.6829 34.4327 32.8543 34.4327 24.3764V19.6076H19.3878V26.1174Z" fill="#49BEB7"/>
<path d="M64.7549 20.5918C67.4692 19.1536 68.7876 16.7313 68.7876 13.4764C68.7876 7.19365 63.9794 3.78735 56.7672 3.78735H39.1631V39.2129H56.7672C65.2978 39.2129 70.1835 35.4281 70.1835 28.9183C70.1835 24.6036 68.0896 22.03 64.7549 20.5918ZM47.2284 10.5243H56.9998C59.4815 10.5243 61.11 11.8111 61.11 14.1576C61.11 16.6556 59.1713 18.0938 56.9998 18.0938H47.2284V10.5243ZM56.7672 32.476H47.2284V24.1495H56.1468C59.9468 24.1495 62.4284 25.2849 62.4284 28.3884C62.4284 31.1135 60.5672 32.476 56.7672 32.476Z" fill="#49BEB7"/>
<path d="M105.935 3.86328L94.6901 26.2692L83.4452 3.86328H74.9922V39.2888H83.2126V20.7434L92.7514 39.2888H96.2412L105.702 20.9705V39.2888H114V3.86328H105.935Z" fill="#49BEB7"/>
<rect x="13.8184" y="0.153809" width="8.06061" height="3.46154" fill="#49BEB7"/>
<rect x="13.8184" y="39.3845" width="8.06061" height="3.46154" fill="#49BEB7"/>
</svg>
