<svg width="431" height="95" viewBox="0 0 431 95" fill="none" xmlns="http://www.w3.org/2000/svg">
<path d="M1 93.794V29.7649C1 22.1863 4.00307 14.9182 9.34856 9.55933C14.694 4.20045 21.9441 1.1897 29.5038 1.1897V1.1897C37.0634 1.1897 44.3135 4.20045 49.659 9.55933C55.0045 14.9182 58.0076 22.1863 58.0076 29.7649" stroke="#49BEB7" stroke-width="2" stroke-miterlimit="10"/>
<path d="M58.0078 29.7649V65.11C58.0078 68.8648 58.7459 72.5828 60.1801 76.0514C61.6142 79.5201 63.7162 82.6713 66.3659 85.3251C69.0156 87.9789 72.161 90.0835 75.6224 91.5179C79.0837 92.9523 82.7932 93.6887 86.5387 93.6851V93.6851C94.0983 93.6851 101.348 90.6744 106.694 85.3155C112.039 79.9566 115.042 72.6886 115.042 65.11V29.7649C115.05 22.1885 118.055 14.9246 123.399 9.5673C128.743 4.20998 135.989 1.1969 143.546 1.1897V1.1897C151.108 1.18969 158.361 4.19957 163.711 9.55767C169.061 14.9158 172.07 22.1838 172.077 29.7649V65.11C172.073 68.8635 172.808 72.5809 174.239 76.0494C175.671 79.5179 177.77 82.6693 180.418 85.3235C183.065 87.9776 186.209 90.0825 189.669 91.5172C193.128 92.952 196.837 93.6887 200.581 93.6851C204.325 93.6887 208.033 92.952 211.493 91.5172C214.953 90.0825 218.096 87.9776 220.744 85.3235C223.391 82.6693 225.491 79.5179 226.922 76.0494C228.353 72.5809 229.088 68.8635 229.085 65.11V29.7649" stroke="#49BEB7" stroke-width="2" stroke-miterlimit="10"/>
<path d="M229.084 65.11V29.7649C229.091 22.1838 232.1 14.9158 237.45 9.55767C242.8 4.19957 250.053 1.18969 257.615 1.1897V1.1897C265.172 1.1969 272.418 4.20998 277.762 9.5673C283.106 14.9246 286.111 22.1885 286.119 29.7649" stroke="#49BEB7" stroke-width="2" stroke-miterlimit="10"/>
<path d="M286.118 29.7654V65.1104C286.118 68.8653 286.856 72.5832 288.29 76.0519C289.725 79.5206 291.827 82.6718 294.476 85.3256C297.126 87.9794 300.271 90.0839 303.733 91.5184C307.194 92.9528 310.904 93.6892 314.649 93.6856C322.209 93.6856 329.459 90.6749 334.804 85.316C340.15 79.9571 343.153 72.689 343.153 65.1104V29.7654C343.16 22.189 346.165 14.9251 351.509 9.56777C356.853 4.21045 364.099 1.19737 371.656 1.19017V1.19017C379.219 1.19017 386.472 4.20005 391.821 9.55815C397.171 14.9162 400.18 22.1843 400.187 29.7654V65.1104C400.184 68.864 400.919 72.5814 402.35 76.0499C403.781 79.5184 405.88 82.6698 408.528 85.324C411.176 87.9781 414.319 90.0829 417.779 91.5177C421.239 92.9525 424.947 93.6892 428.691 93.6856V93.6856C432.435 93.6892 436.143 92.9525 439.603 91.5177C443.063 90.0829 446.207 87.9781 448.854 85.324C451.502 82.6698 453.601 79.5184 455.032 76.0499C456.464 72.5814 457.199 68.864 457.195 65.1104V1" stroke="#49BEB7" stroke-width="2" stroke-miterlimit="10"/>
</svg>
